<?xml version="1.0" encoding="UTF-8" standalone="no"?>
<!-- Created with Inkscape (http://www.inkscape.org/) -->

<svg
   xmlns:dc="http://purl.org/dc/elements/1.1/"
   xmlns:cc="http://creativecommons.org/ns#"
   xmlns:rdf="http://www.w3.org/1999/02/22-rdf-syntax-ns#"
   xmlns:svg="http://www.w3.org/2000/svg"
   xmlns="http://www.w3.org/2000/svg"
   xmlns:sodipodi="http://sodipodi.sourceforge.net/DTD/sodipodi-0.dtd"
   xmlns:inkscape="http://www.inkscape.org/namespaces/inkscape"
   version="1.1"
   id="svg64"
   width="939"
   height="768"
   viewBox="0 0 939 768"
   sodipodi:docname="blender.svg"
   inkscape:version="0.92.2 2405546, 2018-03-11">
  <metadata
     id="metadata70">
    <rdf:RDF>
      <cc:Work
         rdf:about="">
        <dc:format>image/svg+xml</dc:format>
        <dc:type
           rdf:resource="http://purl.org/dc/dcmitype/StillImage" />
        <dc:title></dc:title>
      </cc:Work>
    </rdf:RDF>
  </metadata>
  <defs
     id="defs68" />
  <sodipodi:namedview
     pagecolor="#ffffff"
     bordercolor="#666666"
     borderopacity="1"
     objecttolerance="10"
     gridtolerance="10"
     guidetolerance="10"
     inkscape:pageopacity="0"
     inkscape:pageshadow="2"
     inkscape:window-width="1356"
     inkscape:window-height="737"
     id="namedview66"
     showgrid="false"
     inkscape:zoom="0.49534303"
     inkscape:cx="672.30897"
     inkscape:cy="320.16306"
     inkscape:window-x="5"
     inkscape:window-y="26"
     inkscape:window-maximized="0"
     inkscape:current-layer="layer2" />
  <g
     inkscape:groupmode="layer"
     id="layer2"
     inkscape:label="Layer 2">
    <path
       style="fill:#000000;stroke:none;stroke-width:22.67716535"
       d="M 574,753.55957 C 466.06774,741.02448 374.03812,682.24483 326.07797,595.21088 304.80863,556.6131 292.00456,508.08962 292.00084,466.06903 L 292,456.63807 l -8.75,8.45318 c -18.54945,17.92022 -45.24344,41.47376 -78.75,69.48537 -54.07803,45.20944 -93.04802,73.46029 -114,82.64298 -22.474366,9.84991 -49.403863,6.61446 -65.419034,-7.85981 C 2.1382246,588.62451 8.130741,551.13639 39.126757,521.49184 43.73204,517.08735 65.95,499.55903 88.5,482.54001 172.80098,418.91608 364.44186,273.45685 374.24961,265.65039 c 2.06229,-1.64147 3.62013,-3.11398 3.46188,-3.27224 -0.15826,-0.15825 -11.30142,0.33956 -24.76259,1.10625 -64.87644,3.69511 -129.0038,4.33387 -153.4489,1.52848 C 174.87026,262.1863 154.22406,250.29177 146.13585,234.26912 143.3091,228.66936 143,227.16381 143,218.99527 c 0,-7.61611 0.38568,-9.81423 2.41756,-13.77851 4.5379,-8.85362 16.40434,-18.26142 29.6958,-23.54305 12.20149,-4.8485 17.47965,-5.72427 40.38664,-6.70109 C 231.70662,174.28152 500.13869,172 565.24326,172 h 7.01105 L 554.87716,159.71988 C 508.14348,126.69404 470.43273,96.001605 460.7305,83.094784 447.9289,66.064896 444.70772,47.76955 451.83089,32.54768 464.0547,6.4260023 500.19538,4.255831 533.80433,27.625348 c 3.46738,2.410995 29.11738,22.292794 57,44.181773 135.55783,106.418359 188.34521,147.123459 200.45153,154.571019 32.25933,19.84528 69.31306,55.42522 90.73058,87.12186 21.83265,32.31101 37.19029,71.08814 44.05317,111.23169 1.64796,9.63953 1.99922,16.31475 2.01295,38.25358 0.0175,27.88246 -0.77252,38.61258 -3.98479,54.12542 -8.62763,41.66492 -27.54144,82.15817 -55.0644,117.88931 -11.22979,14.57886 -38.19515,40.88724 -54.07965,52.76208 C 768.186,722.70197 718.65563,743.02382 658,752.14641 c -17.53724,2.63759 -66.38173,3.45932 -84,1.41316 z M 641.16438,616.47936 C 686.6845,609.88011 731.05274,586.24413 760.81746,552.7374 807.06875,500.67142 817.36483,429.04753 787.4457,367.5 758.76146,308.4928 693.26956,266.30966 625.20759,263.00292 c -18.81791,-0.91426 -46.31381,0.21556 -57.26929,2.35321 -41.25118,8.049 -80.16044,29.10899 -108.13304,58.528 -43.41582,45.66075 -58.24702,107.17648 -40.0499,166.11587 3.79292,12.28507 17.92016,39.84263 25.72986,50.19044 32.50934,43.07474 85.49696,72.32744 141.01478,77.84959 10.82097,1.07631 42.76605,0.16429 54.66438,-1.56067 z M 590.38137,544.52724 C 544.25713,536.15419 506.65064,502.18623 495.69274,459 c -3.07314,-12.11158 -2.99018,-36.48488 0.16848,-49.5 4.12064,-16.97889 17.87364,-40.49797 30.77683,-52.63162 16.33135,-15.35736 37.87767,-26.40225 61.40244,-31.4756 11.82298,-2.54974 38.09604,-2.54974 49.91902,0 17.6946,3.81601 35.14689,11.2281 47.95606,20.36719 8.11328,5.78866 21.36485,18.87102 27.3067,26.958 6.33073,8.61626 13.2183,23.10535 16.32131,34.33443 3.54086,12.81358 4.44709,33.45326 2.03112,46.25959 -6.35296,33.67513 -28.63042,62.98289 -59.92338,78.83392 -10.17714,5.15509 -25.81696,10.32903 -37.15132,12.29033 -10.87914,1.88254 -33.98711,1.9302 -44.11863,0.091 z"
       id="path91"
       inkscape:connector-curvature="0" />
  </g>
</svg>
