<?xml version="1.0" encoding="UTF-8" standalone="no"?>
<!-- Created with Inkscape (http://www.inkscape.org/) -->

<svg
   xmlns:dc="http://purl.org/dc/elements/1.1/"
   xmlns:cc="http://creativecommons.org/ns#"
   xmlns:rdf="http://www.w3.org/1999/02/22-rdf-syntax-ns#"
   xmlns:svg="http://www.w3.org/2000/svg"
   xmlns="http://www.w3.org/2000/svg"
   xmlns:sodipodi="http://sodipodi.sourceforge.net/DTD/sodipodi-0.dtd"
   xmlns:inkscape="http://www.inkscape.org/namespaces/inkscape"
   width="44.714584mm"
   height="45.243752mm"
   viewBox="0 0 44.714584 45.243752"
   version="1.1"
   id="svg8"
   inkscape:version="0.92.2 2405546, 2018-03-11"
   sodipodi:docname="gimp.svg">
  <defs
     id="defs2" />
  <sodipodi:namedview
     id="base"
     pagecolor="#ffffff"
     bordercolor="#666666"
     borderopacity="1.0"
     inkscape:pageopacity="0.0"
     inkscape:pageshadow="2"
     inkscape:zoom="2.8"
     inkscape:cx="71.75776"
     inkscape:cy="79.167148"
     inkscape:document-units="mm"
     inkscape:current-layer="layer2"
     showgrid="false"
     inkscape:window-width="1356"
     inkscape:window-height="715"
     inkscape:window-x="5"
     inkscape:window-y="48"
     inkscape:window-maximized="0" />
  <metadata
     id="metadata5">
    <rdf:RDF>
      <cc:Work
         rdf:about="">
        <dc:format>image/svg+xml</dc:format>
        <dc:type
           rdf:resource="http://purl.org/dc/dcmitype/StillImage" />
        <dc:title></dc:title>
      </cc:Work>
    </rdf:RDF>
  </metadata>
  <g
     inkscape:groupmode="layer"
     id="layer2"
     inkscape:label="Camada 2"
     style="opacity:1">
    <path
       style="opacity:1;vector-effect:none;fill:#000000;fill-opacity:1;stroke:none;stroke-width:0.39339936;stroke-linecap:butt;stroke-linejoin:round;stroke-miterlimit:4;stroke-dasharray:none;stroke-dashoffset:0;stroke-opacity:1"
       d="M 84.107422 7.7929688 A 77.313711 76.956568 0 0 0 6.7929688 84.75 A 77.313711 76.956568 0 0 0 84.107422 161.70703 A 77.313711 76.956568 0 0 0 161.41992 84.75 A 77.313711 76.956568 0 0 0 84.107422 7.7929688 z M 84.302734 14.203125 A 69.992858 70.205254 0 0 1 154.29688 84.410156 A 69.992858 70.205254 0 0 1 84.302734 154.61523 A 69.992858 70.205254 0 0 1 14.310547 84.410156 A 69.992858 70.205254 0 0 1 84.302734 14.203125 z "
       transform="scale(0.26458333)"
       id="path13" />
    <path
       style="opacity:1;vector-effect:none;fill:#000000;fill-opacity:1;stroke:none;stroke-width:0.1;stroke-linecap:butt;stroke-linejoin:round;stroke-miterlimit:4;stroke-dasharray:none;stroke-dashoffset:0;stroke-opacity:1"
       d="m 18.591937,19.519057 c 0,0 0.622177,-0.979537 0.551243,-0.935443 -0.166144,0.10328 -4.129803,-0.533928 -5.061417,-4.092564 -0.373441,1.609185 -0.552979,3.218371 -0.217156,4.827556 0,0 2.338609,-2.739515 4.72733,0.200451 z"
       id="path52"
       inkscape:connector-curvature="0"
       sodipodi:nodetypes="csccc" />
    <path
       style="opacity:1;vector-effect:none;fill:#000000;fill-opacity:1;stroke:none;stroke-width:0.37795275;stroke-linecap:butt;stroke-linejoin:round;stroke-miterlimit:4;stroke-dasharray:none;stroke-dashoffset:0;stroke-opacity:1"
       d="m 114.15034,49.507863 c -1.17761,0.05549 -1.83408,2.60986 -1.83408,2.60986 -7.95496,18.056478 -26.579932,17.108839 -26.579932,17.108839 14.07843,10.803844 -1.334779,31.568298 -16.289062,15.785157 0,0 -5.934203,7.196177 -13.257813,3.029297 -0.697342,-9.033922 -10.018289,-15.099042 -17.152344,-13.833985 -11.692555,2.0734 -9.472121,26.276059 11.21875,26.839849 3.998026,4.02638 34.819536,19.8554 50.380861,6.6914 0,0 11.05999,5.94029 18.4707,7.01172 0,0 -1.16071,6.42857 6.875,6.875 1.25001,0 5.71345,0.0898 7.67774,3.21484 0,0 1.25137,-0.62472 -1.96289,-9.64257 -3.21429,-9.01786 -10.80469,-5.08985 -10.80469,-5.08985 -3.92857,-3.92857 -13.31055,-7.92383 -13.31055,-7.92383 11.99556,-13.637041 10.10048,-44.067889 8.45899,-49.749996 -0.61557,-2.130791 -1.18412,-2.959025 -1.89068,-2.925731 z M 40.089844,78.357422 c 1.896386,1.27e-4 3.433645,2.046308 3.433594,4.570312 5.2e-5,2.524004 -1.537208,4.570186 -3.433594,4.570313 -1.896386,-1.27e-4 -3.433646,-2.046309 -3.433594,-4.570313 -5.1e-5,-2.524004 1.537208,-4.570185 3.433594,-4.570312 z M 91.15625,92.207031 c 0.876203,0.02295 4.625277,1.560828 6.076172,5.042969 -1.022608,-1.383 -3.183435,-2.631851 -6.072266,0.625 0,0 16.339004,5.44727 19.642574,8.57227 l -1.60546,2.94531 C 104.64369,108.23186 90,98.947266 90,98.947266 80.446428,103.10808 70.089844,98.277254 70.089844,98.322266 87.768414,101.71513 91.875,94.392578 91.875,94.392578 c 0.165488,-0.10343 0.803517,-1.60715 -0.802734,-1.964844 -0.167411,-0.150669 -0.118217,-0.226 0.08398,-0.220703 z m 33.39648,18.615239 c 1.38058,0 2.49982,0.95921 2.5,2.14257 -1.8e-4,1.18336 -1.11941,2.14258 -2.5,2.14258 -1.38059,0 -2.49982,-0.95922 -2.5,-2.14258 1.8e-4,-1.18336 1.11942,-2.14257 2.5,-2.14257 z m 3.9668,3.95898 c 0.26365,-0.002 0.61365,0.26802 0.86328,0.66602 0.31463,0.50174 0.36625,1.03625 0.11524,1.19335 -0.25103,0.15704 -0.70943,-0.12289 -1.02344,-0.625 -0.31347,-0.50076 -0.36502,-1.03373 -0.11523,-1.1914 0.0457,-0.0284 0.0997,-0.0429 0.16015,-0.043 z"
       transform="scale(0.26458333)"
       id="path54"
       inkscape:connector-curvature="0"
       sodipodi:nodetypes="cccccscccccccccccccccscccccccccscscscccccccc" />
    <circle
       style="opacity:1;vector-effect:none;fill:#000000;fill-opacity:1;stroke:none;stroke-width:0.1;stroke-linecap:butt;stroke-linejoin:round;stroke-miterlimit:4;stroke-dasharray:none;stroke-dashoffset:0;stroke-opacity:1"
       id="path56"
       cx="21.79917"
       cy="21.473467"
       r="1.6537303" />
    <path
       style="opacity:1;vector-effect:none;fill:#000000;fill-opacity:1;stroke:none;stroke-width:0.11303489;stroke-linecap:butt;stroke-linejoin:round;stroke-miterlimit:4;stroke-dasharray:none;stroke-dashoffset:0;stroke-opacity:1"
       d="m 16.819497,19.823596 a 1.3712221,1.4145391 0 0 0 -1.370975,1.414384 1.3712221,1.4145391 0 0 0 1.370975,1.414901 1.3712221,1.4145391 0 0 0 1.192692,-0.717786 1.3712221,1.4145391 0 0 1 -0.151411,-0.645439 1.3712221,1.4145391 0 0 1 0.1788,-0.696598 1.3712221,1.4145391 0 0 0 -1.220081,-0.769462 z"
       id="path62"
       inkscape:connector-curvature="0" />
  </g>
  <g
     inkscape:groupmode="layer"
     id="layer1"
     inkscape:label="Camada 3" />
</svg>
