<?xml version="1.0" encoding="UTF-8" standalone="no"?>
<!-- Created with Inkscape (http://www.inkscape.org/) -->

<svg
   xmlns:dc="http://purl.org/dc/elements/1.1/"
   xmlns:cc="http://creativecommons.org/ns#"
   xmlns:rdf="http://www.w3.org/1999/02/22-rdf-syntax-ns#"
   xmlns:svg="http://www.w3.org/2000/svg"
   xmlns="http://www.w3.org/2000/svg"
   xmlns:sodipodi="http://sodipodi.sourceforge.net/DTD/sodipodi-0.dtd"
   xmlns:inkscape="http://www.inkscape.org/namespaces/inkscape"
   width="127mm"
   height="127mm"
   viewBox="0 0 127 127"
   version="1.1"
   id="svg8"
   inkscape:version="0.92.2 2405546, 2018-03-11"
   sodipodi:docname="inkscape.svg">
  <defs
     id="defs2" />
  <sodipodi:namedview
     id="base"
     pagecolor="#ffffff"
     bordercolor="#666666"
     borderopacity="1.0"
     inkscape:pageopacity="0.0"
     inkscape:pageshadow="2"
     inkscape:zoom="0.98994949"
     inkscape:cx="217.89444"
     inkscape:cy="248.68308"
     inkscape:document-units="mm"
     inkscape:current-layer="layer2"
     showgrid="false"
     inkscape:window-width="1356"
     inkscape:window-height="737"
     inkscape:window-x="5"
     inkscape:window-y="26"
     inkscape:window-maximized="0" />
  <metadata
     id="metadata5">
    <rdf:RDF>
      <cc:Work
         rdf:about="">
        <dc:format>image/svg+xml</dc:format>
        <dc:type
           rdf:resource="http://purl.org/dc/dcmitype/StillImage" />
        <dc:title></dc:title>
      </cc:Work>
    </rdf:RDF>
  </metadata>
  <g
     inkscape:groupmode="layer"
     id="layer2"
     inkscape:label="Camada 2">
    <path
       style="opacity:1;vector-effect:none;fill:#000000;fill-opacity:1;stroke:none;stroke-width:0.37795275;stroke-linecap:butt;stroke-linejoin:round;stroke-miterlimit:4;stroke-dasharray:none;stroke-dashoffset:0;stroke-opacity:1"
       d="M 238.2793 19.197266 C 237.04268 19.190726 235.77065 19.218192 234.46484 19.285156 C 213.57199 20.356585 200.53516 34.822266 200.53516 34.822266 L 167.5 68.392578 L 113.75 123.39258 C 113.75 123.39258 82.143414 156.60715 54.464844 183.75 C 26.786273 210.89286 20.357422 227.32227 20.357422 227.32227 C 7.8574221 254.82227 44.822266 264.82227 44.822266 264.82227 L 92.5 277.32227 C 92.5 277.32227 107.14369 281.25 112.32227 283.75 C 117.50084 286.25 117.32227 291.24972 106.07227 298.39258 C 94.82226 305.53544 80.178571 308.75056 72.5 316.96484 C 64.821429 325.17913 93.927734 336.42773 93.927734 336.42773 C 93.927734 336.42773 150.35631 354.64369 166.42773 362.32227 C 182.49916 370.00084 176.25 378.92773 176.25 378.92773 C 176.25 378.92773 178.03655 380.35743 164.82227 392.85742 C 151.60798 405.35742 158.92773 411.96484 158.92773 411.96484 C 164.28488 420.71487 181.78516 421.60742 181.78516 421.60742 C 194.10659 421.96459 202.1423 428.74896 203.03516 428.92773 C 214.10659 437.49917 214.82227 451.25 214.82227 451.25 C 218.03655 456.78572 223.74972 460.35716 235.89258 461.25 C 248.03543 462.14288 274.46484 452.5 274.46484 452.5 C 274.46484 452.5 295.53628 443.39259 301.96484 437.14258 C 308.39342 430.8926 296.96456 425.89229 289.10742 421.78516 C 281.25028 417.67802 286.42773 411.78516 286.42773 411.78516 C 286.42773 411.78516 286.24944 411.24918 298.03516 401.42773 C 309.82087 391.60629 331.42801 386.42829 333.03516 385.89258 C 362.85658 382.4997 368.21484 363.21484 368.21484 363.21484 C 376.2299 348.25352 346.13152 339.54838 340.17773 334.10742 C 310.57337 315.75306 346.29551 312.09964 353.48242 307.32227 C 418.49047 289.05236 445.22249 270.58789 447.85742 270.71484 C 493.57171 244.28627 434.28516 196.42773 434.28516 196.42773 L 276.875 34.107422 L 267.5 27.142578 C 267.5 27.142578 256.82854 19.295358 238.2793 19.197266 z M 239.41602 35.070312 C 251.66841 35.35664 263.19483 41.727572 269.9082 49.052734 L 329.5625 110.03125 C 342.66531 124.19284 334.3715 135.44634 334.61328 135.28516 L 302.4668 108.97852 L 295.97461 147.66016 L 268.56445 133.04297 L 225.01172 160.79102 L 210.61719 102.96094 L 187.88867 142.86133 C 168.82204 141.97744 142.43203 146.52428 141.42188 137.30664 C 141.49963 136.85792 128.43746 126.23235 166.07227 93.214844 L 211.42773 47.857422 C 219.91647 38.306204 229.88638 34.847613 239.41602 35.070312 z M 159.61523 293.82031 C 159.87113 293.80757 160.12735 293.82356 160.35742 293.86719 C 189.41443 300.76101 218.30947 307.16656 246.69727 312.05273 C 246.69727 312.05273 253.30357 313.30329 250.625 317.14258 C 250.17858 317.32116 244.55441 328.12556 227.94727 323.21484 C 203.71821 316.97091 181.76922 309.05445 162.58984 299.10742 L 162.67773 299.10742 C 156.00782 295.43117 157.824 293.90949 159.61523 293.82031 z M 423.44922 340.20703 C 407.10873 340.34347 391.17462 351.0508 390.89258 361.02734 C 396.06002 369.58365 452.36025 372.88606 452.67773 358.39258 C 445.99923 344.968 434.62955 340.11368 423.44922 340.20703 z M 138.0293 377.02148 C 118.76323 376.67669 94.827352 389.42804 113.13672 405.375 C 135.89579 419.9303 156.59066 387.85025 155.68945 384.03516 C 152.39107 379.29676 145.56819 377.1564 138.0293 377.02148 z M 382.7207 377.5957 C 364.4117 396.7322 386.76183 404.17984 389.66602 403.98633 C 389.66602 403.98633 408.4366 405.05339 404.06055 392.74805 C 400.10629 381.62871 385.50433 378.29374 382.7207 377.5957 z "
       transform="scale(0.26458333)"
       id="path43" />
  </g>
</svg>
