<?xml version="1.0" encoding="UTF-8" standalone="no"?>
<!-- Created with Inkscape (http://www.inkscape.org/) -->

<svg
   xmlns:dc="http://purl.org/dc/elements/1.1/"
   xmlns:cc="http://creativecommons.org/ns#"
   xmlns:rdf="http://www.w3.org/1999/02/22-rdf-syntax-ns#"
   xmlns:svg="http://www.w3.org/2000/svg"
   xmlns="http://www.w3.org/2000/svg"
   xmlns:sodipodi="http://sodipodi.sourceforge.net/DTD/sodipodi-0.dtd"
   xmlns:inkscape="http://www.inkscape.org/namespaces/inkscape"
   width="169.33333mm"
   height="169.33333mm"
   viewBox="0 0 169.33333 169.33333"
   version="1.1"
   id="svg8"
   inkscape:version="0.92.2 2405546, 2018-03-11"
   sodipodi:docname="losao.svg">
  <defs
     id="defs2" />
  <sodipodi:namedview
     id="base"
     pagecolor="#ffffff"
     bordercolor="#666666"
     borderopacity="1.0"
     inkscape:pageopacity="0.0"
     inkscape:pageshadow="2"
     inkscape:zoom="0.7"
     inkscape:cx="244.24632"
     inkscape:cy="241.50379"
     inkscape:document-units="mm"
     inkscape:current-layer="layer2"
     showgrid="false"
     inkscape:pagecheckerboard="true"
     inkscape:window-width="1356"
     inkscape:window-height="737"
     inkscape:window-x="5"
     inkscape:window-y="26"
     inkscape:window-maximized="0" />
  <metadata
     id="metadata5">
    <rdf:RDF>
      <cc:Work
         rdf:about="">
        <dc:format>image/svg+xml</dc:format>
        <dc:type
           rdf:resource="http://purl.org/dc/dcmitype/StillImage" />
        <dc:title></dc:title>
      </cc:Work>
    </rdf:RDF>
  </metadata>
  <g
     inkscape:groupmode="layer"
     id="layer2"
     inkscape:label="Camada 2"
     style="display:inline;opacity:1">
    <path
       style="opacity:1;vector-effect:none;fill:#000000;fill-opacity:1;stroke:none;stroke-width:0.37795275;stroke-linecap:butt;stroke-linejoin:round;stroke-miterlimit:4;stroke-dasharray:none;stroke-dashoffset:0;stroke-opacity:1"
       d="M 301.01562,28.328125 C 218.38496,28.345266 134.21054,67.527627 76.6875,152.48633 -44.476923,331.44022 112.68682,575.28525 313.92773,558.39258 103.79576,545.33877 8.7197361,334.95048 116.34692,168.17194 219.27548,8.674387 502.18063,12.874543 567.70508,273.31445 547.01048,117.55137 425.77173,28.302245 301.01562,28.328125 Z"
       transform="scale(0.26458333)"
       id="path64"
       inkscape:connector-curvature="0"
       sodipodi:nodetypes="sscscs" />
    <path
       style="display:inline;opacity:1;vector-effect:none;fill:#000000;fill-opacity:1;stroke:none;stroke-width:0.11635979;stroke-linecap:butt;stroke-linejoin:round;stroke-miterlimit:4;stroke-dasharray:none;stroke-dashoffset:0;stroke-opacity:1"
       d="m 167.19094,76.358776 c 2.54811,25.311464 -6.85291,52.306014 -31.09943,72.551434 C 85.019555,191.55442 5.4699027,150.94802 4.4258201,88.783142 14.917673,152.74612 82.300483,175.36802 130.06128,137.24667 175.73701,100.7896 165.70838,14.261608 83.907255,2.2384085 132.25913,3.7642224 163.34378,38.143448 167.19094,76.358776 Z"
       id="path64-6"
       inkscape:connector-curvature="0"
       sodipodi:nodetypes="sscscs" />
    <path
       inkscape:connector-curvature="0"
       style="display:inline;opacity:1;vector-effect:none;fill:#000000;fill-opacity:1;stroke:none;stroke-width:0.1;stroke-linecap:butt;stroke-linejoin:round;stroke-miterlimit:4;stroke-dasharray:none;stroke-dashoffset:0;stroke-opacity:1"
       d="m 79.111942,63.294329 c -17.106569,-0.111358 -28.900392,24.55509 -29.26643,24.55509 -0.400905,0.601356 -1.403192,2.138167 -0.100254,3.34088 1.302941,1.202714 2.973462,-0.100253 2.973462,-0.100253 0,0 4.276585,-2.906461 4.343406,-2.93987 7.483546,-5.211757 13.430186,-4.476731 13.430186,-4.476731 z m -4.141348,4.664313 -4.804876,11.645802 c 0,0 -3.137606,-0.228338 -7.948353,1.40508 -1.051589,0.254127 -1.947682,0.818555 -1.947682,0.818555 0,0 -1.296379,0.532085 -2.72645,1.399916 -0.811784,0.492625 1.280311,-2.033892 1.494999,-2.35593 0.247553,0.08374 7.613595,-11.604717 15.932362,-12.913423 z"
       id="path86" />
    <path
       inkscape:connector-curvature="0"
       style="display:inline;opacity:1;vector-effect:none;fill:#000000;fill-opacity:1;stroke:none;stroke-width:0.1;stroke-linecap:butt;stroke-linejoin:round;stroke-miterlimit:4;stroke-dasharray:none;stroke-dashoffset:0;stroke-opacity:1"
       d="m 126.51732,42.540555 c -9.22081,0.198967 -46.213914,-0.582848 -57.347925,39.433254 4.307859,7.29084 8.380381,14.297618 18.345135,18.022155 37.93027,-10.847766 39.13218,-41.062757 39.00279,-57.455409 z m -4.04885,4.104143 C 121.2561,60.459914 118.88905,85.933907 88.002874,95.918176 79.865325,92.223825 77.31775,87.207651 73.273022,81.306665 82.053244,49.135935 114.40243,47.34864 122.46847,46.644698 Z"
       id="path34" />
    <path
       style="display:inline;opacity:1;vector-effect:none;fill:#000000;fill-opacity:1;stroke:none;stroke-width:0.10677066;stroke-linecap:butt;stroke-linejoin:round;stroke-miterlimit:4;stroke-dasharray:none;stroke-dashoffset:0;stroke-opacity:1"
       d="m 99.945075,59.422213 a 10.033186,9.8523025 0 0 0 -10.033201,9.852112 10.033186,9.8523025 0 0 0 10.033201,9.852112 10.033186,9.8523025 0 0 0 10.033205,-9.852112 10.033186,9.8523025 0 0 0 -10.033205,-9.852112 z m -0.112151,3.987871 a 6.1383074,5.9243068 0 0 1 6.138096,5.924185 6.1383074,5.9243068 0 0 1 -6.138096,5.924187 6.1383074,5.9243068 0 0 1 -6.138609,-5.924187 6.1383074,5.9243068 0 0 1 6.138609,-5.924185 z"
       id="path16"
       inkscape:connector-curvature="0" />
    <path
       inkscape:connector-curvature="0"
       style="display:inline;opacity:1;vector-effect:none;fill:#000000;fill-opacity:1;stroke:none;stroke-width:0.1;stroke-linecap:butt;stroke-linejoin:round;stroke-miterlimit:4;stroke-dasharray:none;stroke-dashoffset:0;stroke-opacity:1"
       d="m 65.213565,95.633955 c -12.514522,0.208294 -19.963964,26.847175 -20.159493,25.893515 0.05028,1.18259 0.717489,2.43721 2.786911,2.10271 16.236625,-5.77677 25.872634,-11.2626 25.115261,-20.04529 -0.610227,-7.076373 -7.168562,-7.916105 -7.742679,-7.950935 z M 45.054072,121.52747 c -0.0011,-0.0263 -0.0036,-0.0528 -0.0041,-0.0791 -0.0013,0.0369 5.29e-4,0.0614 0.0041,0.0791 z m 19.79104,-21.822445 c 0.927422,0.0191 4.010927,0.392065 4.149619,4.525305 0.16683,4.97182 -6.145054,9.646 -17.444414,13.74748 -1.581927,0.3949 -1.103884,0.90779 -0.727088,-0.69815 0.252201,-0.78119 6.665688,-16.81829 13.771253,-17.571018 0.02961,-0.0019 0.118142,-0.0063 0.25063,-0.0036 z"
       id="path68" />
    <path
       inkscape:connector-curvature="0"
       style="display:inline;opacity:1;vector-effect:none;fill:#000000;fill-opacity:1;stroke:none;stroke-width:0.1;stroke-linecap:butt;stroke-linejoin:round;stroke-miterlimit:4;stroke-dasharray:none;stroke-dashoffset:0;stroke-opacity:1"
       d="m 105.97326,90.219633 c 0.1703,17.106077 -24.455366,28.984827 -24.454104,29.350857 -0.599977,0.40297 -2.133322,1.41056 -3.340515,0.11177 -1.207194,-1.29879 0.09,-2.97379 0.09,-2.97379 0,0 2.891706,-4.28657 2.924884,-4.35351 5.185945,-7.50146 4.43043,-13.445529 4.43043,-13.445529 z m -4.65001,4.157395 -11.629191,4.844979 c 0,0 0.239151,3.136793 -1.377686,7.953133 -0.250494,1.05247 -0.811831,1.95049 -0.811831,1.95049 0,0 -0.527622,1.29821 -1.390518,2.73126 -0.489821,0.81349 2.029476,-1.2873 2.350765,-1.50311 -0.08455,-0.24725 11.578421,-7.65353 12.858461,-15.976752 z"
       id="path86-3" />
  </g>
</svg>
