<?xml version="1.0" encoding="UTF-8" standalone="no"?>
<!-- Created with Inkscape (http://www.inkscape.org/) -->

<svg
   xmlns:dc="http://purl.org/dc/elements/1.1/"
   xmlns:cc="http://creativecommons.org/ns#"
   xmlns:rdf="http://www.w3.org/1999/02/22-rdf-syntax-ns#"
   xmlns:svg="http://www.w3.org/2000/svg"
   xmlns="http://www.w3.org/2000/svg"
   xmlns:sodipodi="http://sodipodi.sourceforge.net/DTD/sodipodi-0.dtd"
   xmlns:inkscape="http://www.inkscape.org/namespaces/inkscape"
   version="1.1"
   id="svg129"
   width="1158.0933"
   height="989"
   viewBox="0 0 1158.0933 989"
   sodipodi:docname="void.svg"
   inkscape:version="0.92.2 2405546, 2018-03-11">
  <metadata
     id="metadata135">
    <rdf:RDF>
      <cc:Work
         rdf:about="">
        <dc:format>image/svg+xml</dc:format>
        <dc:type
           rdf:resource="http://purl.org/dc/dcmitype/StillImage" />
        <dc:title></dc:title>
      </cc:Work>
    </rdf:RDF>
  </metadata>
  <defs
     id="defs133" />
  <sodipodi:namedview
     pagecolor="#ffffff"
     bordercolor="#666666"
     borderopacity="1"
     objecttolerance="10"
     gridtolerance="10"
     guidetolerance="10"
     inkscape:pageopacity="0"
     inkscape:pageshadow="2"
     inkscape:window-width="1356"
     inkscape:window-height="737"
     id="namedview131"
     showgrid="false"
     inkscape:zoom="0.33746653"
     inkscape:cx="504.92219"
     inkscape:cy="500.81133"
     inkscape:window-x="5"
     inkscape:window-y="26"
     inkscape:window-maximized="0"
     inkscape:current-layer="layer5" />
  <g
     inkscape:groupmode="layer"
     id="layer5"
     inkscape:label="Layer 3"
     style="display:inline">
    <path
       style="opacity:1;vector-effect:none;fill:#000000;fill-opacity:1;stroke:none;stroke-width:2;stroke-linecap:butt;stroke-linejoin:round;stroke-miterlimit:4;stroke-dasharray:none;stroke-dashoffset:0;stroke-opacity:1"
       d="m 1.5715042,402.82892 94.3639348,180.5753 c 0,0 2.222443,7.03774 10.741811,7.03774 8.51936,0 18.52035,0 18.52035,0 0,0 3.70407,1.48163 19.63158,-10.3714 L 390.25689,403.35275 c 0,0 11.52436,-8.64327 -0.26192,-9.16711 -11.78628,-0.52383 -20.2986,-0.26191 -20.2986,-0.26191 0,0 -2.75013,-0.6548 -16.10792,8.51231 L 194.86653,515.97722 135.6732,399.16208 c 0,0 -3.06746,-5.22109 -10.10519,-5.22109 -7.03774,0 -117.9746644,0 -117.9746644,0 0,0 -9.4508331,-0.004 -6.0218414,8.88793 z"
       id="path213"
       inkscape:connector-curvature="0" />
    <path
       style="opacity:1;vector-effect:none;fill:#000000;fill-opacity:1;stroke:none;stroke-width:2;stroke-linecap:butt;stroke-linejoin:round;stroke-miterlimit:4;stroke-dasharray:none;stroke-dashoffset:0;stroke-opacity:1"
       d="m 469.67578,393.38477 c -37.78152,1.48163 -74.08008,25.92968 -74.08008,25.92968 0,0 -54.35436,33.63162 -63.71093,93.3418 -8.71222,55.59817 38.27317,77.417 45.92968,77.04492 h 165.94336 c 0,0 31.11438,-2.96292 69.63672,-30.37305 38.52234,-27.41012 55.56055,-83.71289 55.56055,-83.71289 0,0 5.18606,-20.0014 -2.96289,-48.15234 -8.14896,-28.15094 -46.67188,-33.33594 -46.67188,-33.33594 z m 31.30078,33.89257 c 0,0 51.11605,0.37077 51.66992,0.17188 18.38403,1.2643 14.86631,21.72453 13.61914,25.66797 l -12.04882,29.85937 c 0,0 -16.23929,39.81072 -30.38282,57.6211 -14.14354,17.81038 -28.2871,15.71484 -28.2871,15.71484 -10e-6,0 -25.14352,0.52383 -44.5254,0 -19.38189,-0.52384 -18.85742,-13.0957 -18.85742,-13.0957 8.13227,-42.02898 38.31674,-99.20963 48.19336,-107.91016 6.00536,-5.33749 9.08036,-7.28713 20.61914,-8.0293 z"
       id="path217"
       inkscape:connector-curvature="0" />
    <path
       style="opacity:1;vector-effect:none;fill:#000000;fill-opacity:1;stroke:none;stroke-width:2;stroke-linecap:butt;stroke-linejoin:round;stroke-miterlimit:4;stroke-dasharray:none;stroke-dashoffset:0;stroke-opacity:1"
       d="m 725.51112,400.73358 -77.0037,179.15148 c 0,0 -6.28602,12.0482 5.76218,11.00053 h 86.43273 c 0,0 11.52437,1.04767 17.28655,-7.33368 l 77.52754,-180.19916 c 0,0 7.33369,-9.42902 -7.85752,-9.42902 -2.09534,-0.52384 -88.52807,0 -88.52807,0 0,0 -9.42904,0 -13.61971,6.80985 z"
       id="path219"
       inkscape:connector-curvature="0" />
    <path
       style="opacity:1;vector-effect:none;fill:#000000;fill-opacity:1;stroke:none;stroke-width:2;stroke-linecap:butt;stroke-linejoin:round;stroke-miterlimit:4;stroke-dasharray:none;stroke-dashoffset:0;stroke-opacity:1"
       d="m 877.31836,393.38086 c -11.64493,0.10754 -15.08594,9.44726 -15.08594,9.44726 l -77.52734,179.67579 c -6.45461,12.13883 13.33065,8.5173 15.71484,8.90625 0,0 184.91363,-1.57306 188.05664,-0.52539 58.85674,2.28237 86.12504,-15.0821 86.03904,-15.0586 58.1457,-28.28708 75.3008,-85.51758 75.3008,-85.51758 28.7085,-76.95688 -33.3937,-95.03202 -40.8574,-95.86132 0,0 -217.91627,-0.52304 -230.4883,-1.04688 -0.39287,-0.0164 -0.7767,-0.023 -1.15234,-0.0195 z m 119.20312,33.14062 c 8.73612,0.0281 18.01502,0.27294 26.52732,0.92774 27.2394,2.09534 13.0957,32.47851 13.0957,32.47851 0,0 -25.6674,60.76377 -41.90622,83.8125 -16.23888,23.04872 -88.0039,13.09571 -88.0039,13.09571 l 54.47851,-129.38672 c 0,0 16.58912,-0.98963 35.80859,-0.92774 z"
       id="path221"
       inkscape:connector-curvature="0" />
  </g>
</svg>
