<?xml version="1.0" encoding="UTF-8" standalone="no"?>
<!-- Created with Inkscape (http://www.inkscape.org/) -->

<svg
   xmlns:dc="http://purl.org/dc/elements/1.1/"
   xmlns:cc="http://creativecommons.org/ns#"
   xmlns:rdf="http://www.w3.org/1999/02/22-rdf-syntax-ns#"
   xmlns:svg="http://www.w3.org/2000/svg"
   xmlns="http://www.w3.org/2000/svg"
   xmlns:sodipodi="http://sodipodi.sourceforge.net/DTD/sodipodi-0.dtd"
   xmlns:inkscape="http://www.inkscape.org/namespaces/inkscape"
   version="1.1"
   id="svg129"
   width="1158.0933"
   height="989"
   viewBox="0 0 1158.0933 989"
   sodipodi:docname="void3.svg"
   inkscape:version="0.92.2 2405546, 2018-03-11">
  <metadata
     id="metadata135">
    <rdf:RDF>
      <cc:Work
         rdf:about="">
        <dc:format>image/svg+xml</dc:format>
        <dc:type
           rdf:resource="http://purl.org/dc/dcmitype/StillImage" />
        <dc:title></dc:title>
      </cc:Work>
    </rdf:RDF>
  </metadata>
  <defs
     id="defs133" />
  <sodipodi:namedview
     pagecolor="#ffffff"
     bordercolor="#666666"
     borderopacity="1"
     objecttolerance="10"
     gridtolerance="10"
     guidetolerance="10"
     inkscape:pageopacity="0"
     inkscape:pageshadow="2"
     inkscape:window-width="1356"
     inkscape:window-height="737"
     id="namedview131"
     showgrid="false"
     inkscape:zoom="0.33746653"
     inkscape:cx="507.95182"
     inkscape:cy="260.24223"
     inkscape:window-x="5"
     inkscape:window-y="26"
     inkscape:window-maximized="0"
     inkscape:current-layer="layer4" />
  <g
     inkscape:groupmode="layer"
     id="layer4"
     inkscape:label="Layer 2"
     transform="translate(33.525425)"
     style="display:inline;opacity:1">
    <path
       style="opacity:1;vector-effect:none;fill:#000000;fill-opacity:1;stroke:none;stroke-width:6;stroke-linecap:butt;stroke-linejoin:round;stroke-miterlimit:4;stroke-dasharray:none;stroke-dashoffset:0;stroke-opacity:1"
       d="M 579.48242,6.8613281 A 473.40488,487.36217 0 0 0 300.71875,100.95508 l 103.79687,102.46094 a 335.07625,344.9552 0 0 1 176.85157,-52.20899 335.07625,344.9552 0 0 1 319.56445,242.44922 c 36.84113,0.27244 92.19047,0.45303 141.74026,0.5957 A 473.40488,487.36217 0 0 0 579.48242,6.8613281 Z M 182.87695,228.38086 a 473.40488,487.36217 0 0 0 -66.10156,165.56055 h 8.79297 c 7.03773,0 10.10547,5.2207 10.10547,5.2207 l 59.19336,116.81445 52.28125,-37.40039 a 335.07625,344.9552 0 0 1 39.93945,-147.32226 z m 813.64453,198.14062 c -19.21947,-0.0619 -35.80859,0.92774 -35.80859,0.92774 L 913.3418,539.95703 a 335.07625,344.9552 0 0 1 -2.57813,17.41211 c 15.82641,1.71431 69.66259,5.97524 83.47461,-13.62891 16.23882,-23.04873 41.90622,-83.8125 41.90622,-83.8125 0,0 14.1437,-30.38317 -13.0957,-32.47851 -8.5123,-0.6548 -17.7912,-0.89964 -26.52732,-0.92774 z m -749.86523,80.23047 -101.82617,73.31836 c -15.92752,11.85303 -19.63281,10.3711 -19.63281,10.3711 h -9.77149 A 473.40488,487.36217 0 0 0 579.48242,981.58594 473.40488,487.36217 0 0 0 853.96289,890.84766 L 753.50977,791.68555 A 335.07625,344.9552 0 0 1 581.36719,841.11523 335.07625,344.9552 0 0 1 246.65625,506.75195 Z m 797.47855,79.82227 c -13.6991,2.99684 -32.1516,5.2221 -55.65824,4.31055 -1.45791,-0.48598 -42.20117,-0.40098 -85.2832,-0.17774 a 335.07625,344.9552 0 0 1 -30.29688,75.07813 l 100.06836,98.78125 a 473.40488,487.36217 0 0 0 71.16996,-177.99219 z"
       transform="translate(-33.525425)"
       id="path156-6"
       inkscape:connector-curvature="0" />
    <path
       style="opacity:1;vector-effect:none;fill:#000000;fill-opacity:1;stroke:none;stroke-width:6;stroke-linecap:butt;stroke-linejoin:round;stroke-miterlimit:4;stroke-dasharray:none;stroke-dashoffset:0;stroke-opacity:1"
       d="m 582.2793,341.89258 a 150.76218,155.20706 0 0 0 -111.93946,51.49609 l 148.98047,0.73828 c 0,0 38.52292,5.185 46.67188,33.33594 8.14895,28.15094 2.96289,48.15234 2.96289,48.15234 0,0 -17.03821,56.30278 -55.56055,83.71289 -38.52234,27.41014 -69.63672,30.37305 -69.63672,30.37305 h -82.26758 a 150.76218,155.20706 0 0 0 120.78907,62.60547 150.76218,155.20706 0 0 0 119.96679,-61.42187 h -47.97656 c -12.0482,1.04767 -5.76172,-11 -5.76172,-11 L 715.36328,424.34375 A 150.76218,155.20706 0 0 0 582.2793,341.89258 Z m -81.30274,85.38476 c -11.53878,0.74217 -14.61378,2.69181 -20.61914,8.0293 -8.89676,7.83735 -34.26485,55.00848 -45.15625,95.01172 a 150.76218,155.20706 0 0 0 7.29883,24.7168 c 2.29622,0.71075 5.09189,1.18465 8.52148,1.27734 19.38188,0.52383 44.52539,0 44.5254,0 0,0 14.14356,2.09554 28.2871,-15.71484 14.14353,-17.81038 30.38282,-57.6211 30.38282,-57.6211 l 12.04882,-29.85937 c 1.24717,-3.94344 4.76489,-24.40367 -13.61914,-25.66797 -0.55388,0.19889 -51.66992,-0.17188 -51.66992,-0.17188 z"
       transform="translate(-33.525425)"
       id="path156"
       inkscape:connector-curvature="0" />
    <path
       style="color:#000000;font-style:normal;font-variant:normal;font-weight:normal;font-stretch:normal;font-size:medium;line-height:normal;font-family:sans-serif;font-variant-ligatures:normal;font-variant-position:normal;font-variant-caps:normal;font-variant-numeric:normal;font-variant-alternates:normal;font-feature-settings:normal;text-indent:0;text-align:start;text-decoration:none;text-decoration-line:none;text-decoration-style:solid;text-decoration-color:#000000;letter-spacing:normal;word-spacing:normal;text-transform:none;writing-mode:lr-tb;direction:ltr;text-orientation:mixed;dominant-baseline:auto;baseline-shift:baseline;text-anchor:start;white-space:normal;shape-padding:0;clip-rule:nonzero;display:inline;overflow:visible;visibility:visible;opacity:1;isolation:auto;mix-blend-mode:normal;color-interpolation:sRGB;color-interpolation-filters:linearRGB;solid-color:#000000;solid-opacity:1;vector-effect:none;fill:#000000;fill-opacity:1;fill-rule:nonzero;stroke:none;stroke-width:16;stroke-linecap:butt;stroke-linejoin:round;stroke-miterlimit:4;stroke-dasharray:none;stroke-dashoffset:0;stroke-opacity:1;color-rendering:auto;image-rendering:auto;shape-rendering:auto;text-rendering:auto;enable-background:accumulate"
       d="m 341.8457,385.85938 c -3.58931,5.6e-4 -5.57468,0.0621 -5.71875,0.0664 -0.0353,-0.001 -0.0677,-0.0117 -0.0996,-0.0117 -0.64001,0 -1.25546,0.0628 -1.87695,0.17188 -1.24298,0.21806 -2.52239,0.61349 -4.10156,1.27148 -3.15835,1.31598 -7.54837,3.70365 -14.51172,8.48242 a 8.0008,8.0008 0 0 0 -0.12891,0.0899 L 164.26562,504.05078 109.2832,395.54688 a 8.0008,8.0008 0 0 0 -0.23828,-0.4375 c 0,0 -6.00758,-9.16797 -17.001951,-9.16797 h -117.970703 -0.0039 c -0.0061,-5.3e-4 -3.908954,-0.33857 -8.28125,2.17187 -2.18785,1.2562 -4.753992,3.69535 -5.859375,7.11719 -1.105383,3.42184 -0.64676,7.10271 0.654297,10.47656 a 8.0008,8.0008 0 0 0 0.373047,0.82617 L 55.320312,587.10938 54.78125,585.8125 c 0,0 1.116198,3.48721 3.919922,6.53125 2.803724,3.04404 7.988588,6.09766 14.451172,6.09766 h 18.519531 l -0.05078,-0.01 c 0.494915,0.0262 0.983912,0.0731 1.498047,0.0332 1.576587,-0.12245 3.246147,-0.52597 5.24414,-1.28711 3.995989,-1.52228 9.386699,-4.4903 17.716799,-10.68945 L 361.40625,409.8457 a 8.0008,8.0008 0 0 0 0.125,-0.0937 c 0,0 3.45682,-2.09264 6.25,-6.50976 0.6983,-1.10428 1.43852,-2.44623 1.81445,-4.45117 0.37593,-2.00495 0.11503,-4.98178 -1.41406,-7.32422 -3.05819,-4.6849 -7.37819,-5.09658 -11.35742,-5.27344 -6.03757,-0.26833 -11.26295,-0.33456 -14.97852,-0.33398 z m 0.10938,15.99804 c 0.75515,1.3e-4 2.18268,0.0629 3.0664,0.0703 L 106.62891,573.57812 a 8.0008,8.0008 0 0 0 -0.10157,0.0742 c -7.597393,5.65388 -12.021446,7.87211 -13.859371,8.57227 -0.743443,0.28322 -0.750032,0.24619 -0.636719,0.23242 a 8.0008,8.0008 0 0 0 -0.359375,-0.0156 H 73.152344 c -2.056787,0 -2.244302,-0.46268 -2.681641,-0.9375 -0.437338,-0.47483 -0.43164,-0.50782 -0.431641,-0.50782 A 8.0008,8.0008 0 0 0 69.5,579.69922 L -23.390625,401.94141 H 92.042969 c 2.878626,0 3.121503,1.04336 3.148437,1.18945 l 59.013674,116.46289 a 8.0008,8.0008 0 0 0 11.79101,2.89063 L 324.62695,409.00781 c 6.36566,-4.36547 10.02379,-6.23403 11.57617,-6.88086 0.57932,-0.24138 0.5504,-0.21403 0.5293,-0.21093 0.21894,-0.006 1.93469,-0.0591 5.22266,-0.0586 z"
       id="path213"
       inkscape:connector-curvature="0" />
    <path
       style="color:#000000;font-style:normal;font-variant:normal;font-weight:normal;font-stretch:normal;font-size:medium;line-height:normal;font-family:sans-serif;font-variant-ligatures:normal;font-variant-position:normal;font-variant-caps:normal;font-variant-numeric:normal;font-variant-alternates:normal;font-feature-settings:normal;text-indent:0;text-align:start;text-decoration:none;text-decoration-line:none;text-decoration-style:solid;text-decoration-color:#000000;letter-spacing:normal;word-spacing:normal;text-transform:none;writing-mode:lr-tb;direction:ltr;text-orientation:mixed;dominant-baseline:auto;baseline-shift:baseline;text-anchor:start;white-space:normal;shape-padding:0;clip-rule:nonzero;display:inline;overflow:visible;visibility:visible;opacity:1;isolation:auto;mix-blend-mode:normal;color-interpolation:sRGB;color-interpolation-filters:linearRGB;solid-color:#000000;solid-opacity:1;vector-effect:none;fill:#000000;fill-opacity:1;fill-rule:nonzero;stroke:none;stroke-width:16;stroke-linecap:butt;stroke-linejoin:round;stroke-miterlimit:4;stroke-dasharray:none;stroke-dashoffset:0;stroke-opacity:1;color-rendering:auto;image-rendering:auto;shape-rendering:auto;text-rendering:auto;enable-background:accumulate"
       d="m 436.18945,385.38477 a 8.0008,8.0008 0 0 0 -0.35351,0.006 c -40.71695,1.59675 -77.48959,26.78892 -78.04102,27.16797 -0.20788,0.12687 -57.33901,35.03785 -67.33984,98.85938 -4.72141,30.13025 5.93298,52.43089 18.90039,66.22851 6.4837,6.89881 13.46422,11.79982 19.52539,15.04493 3.03058,1.62255 5.826,2.83046 8.33984,3.67187 2.51385,0.84142 4.40876,1.47626 7.45703,1.32813 l -0.38867,0.01 h 165.94336 a 8.0008,8.0008 0 0 0 0.75781,-0.0352 c 0,0 33.55914,-3.38834 73.51758,-31.82032 41.83095,-29.76431 58.57813,-87.91406 58.57813,-87.91406 a 8.0008,8.0008 0 0 0 0.0879,-0.30859 c 0,0 5.65901,-22.39082 -3.02344,-52.38477 -4.97423,-17.18371 -18.97123,-26.95003 -30.7793,-32.28906 -11.80806,-5.33903 -22.50976,-6.75 -22.50976,-6.75 a 8.0008,8.0008 0 0 0 -1.02735,-0.0723 z m 0.20899,16.00195 148.66406,0.73633 c 0.49998,0.0717 8.51599,1.24414 17.7168,5.40429 9.49063,4.29121 18.82918,11.19293 22.0039,22.16016 7.52718,26.00298 3.03735,43.37105 2.93164,43.77344 -0.15686,0.49121 -17.43074,54.40761 -52.48437,79.34961 -36.68176,26.10048 -64.91897,28.83333 -65.53516,28.89062 H 344.28906 a 8.0008,8.0008 0 0 0 -0.38867,0.01 c 1.13414,-0.0551 -0.11442,-0.0218 -1.60156,-0.51953 -1.48714,-0.49777 -3.55037,-1.36611 -5.86524,-2.60547 -4.62973,-2.47873 -10.28729,-6.43733 -15.41797,-11.89649 -10.26135,-10.91831 -18.74276,-27.327 -14.75195,-52.79492 8.69412,-55.48262 60.01563,-87.77734 60.01563,-87.77734 a 8.0008,8.0008 0 0 0 0.25976,-0.16797 c 0,0 35.3411,-23.18162 69.85938,-24.5625 z m 31.11133,17.89062 a 8.0008,8.0008 0 0 0 -0.57227,0.0156 c -12.33729,0.79353 -19.11696,4.43448 -25.41016,10.02539 -4.20648,3.71139 -7.5962,8.9756 -12.10742,16.49219 -4.51698,7.52618 -9.56848,16.99412 -14.5664,27.52148 -9.99586,21.05473 -19.78008,46.20266 -24.06836,68.36524 a 8.0008,8.0008 0 0 0 -0.13868,1.18554 c 0,0 -0.16911,5.99928 3.64258,11.33594 3.81169,5.33666 11.56953,9.78313 22.99024,10.0918 19.71265,0.53277 44.9082,0 44.9082,0 l -1.33789,-0.084 c 0,0 5.7133,0.68998 12.45703,-1.47461 6.74373,-2.16458 15.29316,-7.13783 23.26758,-17.17968 15.89943,-20.02151 31.52539,-59.57422 31.52539,-59.57422 a 8.0008,8.0008 0 0 0 0.01,-0.0273 l 12.04882,-29.85937 a 8.0008,8.0008 0 0 0 0.20899,-0.58203 c 1.17101,-3.70262 2.48008,-10.01788 0.74023,-17.96289 -0.86992,-3.97251 -2.71656,-8.35653 -6.37304,-11.88477 -3.65649,-3.52824 -8.97758,-5.79429 -15.06446,-6.21289 a 8.0008,8.0008 0 0 0 -1.33203,0.0273 c 0.002,4e-5 0.0324,-0.008 0.0352,-0.008 0.15325,-0.0132 0.18209,-0.0134 0.1875,-0.0137 0.0108,-4.9e-4 -0.10723,0.004 -0.27344,0.008 -0.33242,0.007 -0.88805,0.0133 -1.59375,0.0176 -1.41141,0.009 -3.44438,0.009 -5.86914,0.006 -4.84952,-0.007 -11.28424,-0.0345 -17.70313,-0.0684 -12.83777,-0.0678 -25.61132,-0.16016 -25.61132,-0.16016 z M 467.75,435.2793 c 0.34896,0.003 12.60761,0.0913 25.28711,0.1582 6.42936,0.0339 12.87511,0.0615 17.76562,0.0684 2.44526,0.003 4.49827,0.001 5.98829,-0.008 0.745,-0.005 1.34311,-0.01 1.82031,-0.0195 0.0634,-0.001 0.12027,-0.004 0.17969,-0.006 2.88313,0.24058 4.04485,0.9612 4.83398,1.72265 0.81547,0.78687 1.45881,2.0014 1.85156,3.79492 0.77487,3.53844 -0.24831,9.23014 -0.34961,9.61719 l -11.84375,29.34766 c 0,0 -16.85259,40.06871 -29.24023,55.66797 -6.16912,7.76852 -11.76302,10.65429 -15.62695,11.89453 -3.86394,1.24024 -5.22266,0.88086 -5.22266,0.88086 a 8.0008,8.0008 0 0 0 -1.33789,-0.084 c 0,0 -25.09147,0.51489 -44.14258,0 -7.96118,-0.21517 -9.63275,-2.31625 -10.4043,-3.39648 -0.65584,-0.91823 -0.58181,-1.07904 -0.57617,-1.16211 3.95314,-19.6944 13.12815,-43.65973 22.57617,-63.56055 4.79931,-10.10899 9.65554,-19.19477 13.83008,-26.15039 4.17454,-6.95562 8.25806,-12.09627 8.98242,-12.73437 a 8.0008,8.0008 0 0 0 0.0254,-0.0234 c 5.66532,-5.03527 5.15643,-5.33046 15.60352,-6.00781 z"
       id="path217"
       inkscape:connector-curvature="0" />
    <path
       style="color:#000000;font-style:normal;font-variant:normal;font-weight:normal;font-stretch:normal;font-size:medium;line-height:normal;font-family:sans-serif;font-variant-ligatures:normal;font-variant-position:normal;font-variant-caps:normal;font-variant-numeric:normal;font-variant-alternates:normal;font-feature-settings:normal;text-indent:0;text-align:start;text-decoration:none;text-decoration-line:none;text-decoration-style:solid;text-decoration-color:#000000;letter-spacing:normal;word-spacing:normal;text-transform:none;writing-mode:lr-tb;direction:ltr;text-orientation:mixed;dominant-baseline:auto;baseline-shift:baseline;text-anchor:start;white-space:normal;shape-padding:0;clip-rule:nonzero;display:inline;overflow:visible;visibility:visible;opacity:1;isolation:auto;mix-blend-mode:normal;color-interpolation:sRGB;color-interpolation-filters:linearRGB;solid-color:#000000;solid-opacity:1;vector-effect:none;fill:#000000;fill-opacity:1;fill-rule:nonzero;stroke:none;stroke-width:16;stroke-linecap:butt;stroke-linejoin:round;stroke-miterlimit:4;stroke-dasharray:none;stroke-dashoffset:0;stroke-opacity:1;color-rendering:auto;image-rendering:auto;shape-rendering:auto;text-rendering:auto;enable-background:accumulate"
       d="m 779.43945,385.70312 c -8.42855,-0.0246 -19.43577,-0.009 -30.3789,0.0234 -21.8617,0.0655 -43.40664,0.19697 -43.45508,0.19727 0,0 -13.43573,-0.75434 -20.43359,10.61719 a 8.0008,8.0008 0 0 0 -0.53516,1.0332 l -76.99414,179.1289 -0.01,0.0234 c -0.40722,0.68669 -2.16999,3.80219 -2.28515,8.86914 -0.0643,2.83066 0.77142,7.03554 4.09765,9.99219 3.32623,2.95665 7.7216,3.63893 11.99219,3.26758 l -0.69336,0.0293 h 86.43359 l -0.72461,-0.0312 c 0,0 15.84389,1.97174 24.60352,-10.76954 a 8.0008,8.0008 0 0 0 0.75586,-1.37109 l 77.16602,-179.35937 c 0.89408,-0.98128 2.92742,-3.53434 2.77734,-8.9375 -0.0923,-3.3243 -2.37965,-7.74947 -5.81836,-9.84766 -3.2562,-1.98683 -6.83847,-2.53033 -11.13086,-2.58789 -0.086,0.007 -0.48439,-0.0785 -0.60156,-0.0859 -0.36407,-0.0232 -0.72313,-0.0387 -1.14453,-0.0527 -0.84281,-0.0281 -1.91062,-0.0501 -3.22071,-0.0684 -2.62017,-0.0366 -6.18611,-0.058 -10.40039,-0.0703 z m -0.0449,16 c 4.18345,0.0122 7.71498,0.0353 10.22266,0.0703 1.25384,0.0175 2.25666,0.0368 2.91015,0.0586 0.32675,0.0109 0.5723,0.0238 0.65821,0.0293 0.002,1.1e-4 -0.0215,-0.004 -0.0195,-0.004 a 8.0008,8.0008 0 0 0 0.73437,0.0606 l -76.29101,177.32226 c -2.89974,3.73347 -9.70899,3.67774 -9.70899,3.67774 a 8.0008,8.0008 0 0 0 -0.72266,-0.0332 h -84.77734 l 76.54688,-178.08594 c 1.5252,-2.1324 6.6582,-2.875 6.6582,-2.875 a 8.0008,8.0008 0 0 0 0.0488,0 c 0,0 21.59918,-0.13184 43.45312,-0.19727 10.92697,-0.0327 21.92021,-0.0479 30.28711,-0.0234 z"
       id="path219"
       inkscape:connector-curvature="0" />
    <path
       style="color:#000000;font-style:normal;font-variant:normal;font-weight:normal;font-stretch:normal;font-size:medium;line-height:normal;font-family:sans-serif;font-variant-ligatures:normal;font-variant-position:normal;font-variant-caps:normal;font-variant-numeric:normal;font-variant-alternates:normal;font-feature-settings:normal;text-indent:0;text-align:start;text-decoration:none;text-decoration-line:none;text-decoration-style:solid;text-decoration-color:#000000;letter-spacing:normal;word-spacing:normal;text-transform:none;writing-mode:lr-tb;direction:ltr;text-orientation:mixed;dominant-baseline:auto;baseline-shift:baseline;text-anchor:start;white-space:normal;shape-padding:0;clip-rule:nonzero;display:inline;overflow:visible;visibility:visible;opacity:1;isolation:auto;mix-blend-mode:normal;color-interpolation:sRGB;color-interpolation-filters:linearRGB;solid-color:#000000;solid-opacity:1;vector-effect:none;fill:#000000;fill-opacity:1;fill-rule:nonzero;stroke:none;stroke-width:16;stroke-linecap:butt;stroke-linejoin:round;stroke-miterlimit:4;stroke-dasharray:none;stroke-dashoffset:0;stroke-opacity:1;color-rendering:auto;image-rendering:auto;shape-rendering:auto;text-rendering:auto;enable-background:accumulate"
       d="m 843.71875,385.38086 c -15.90739,0.1469 -22.51758,14.68164 -22.51758,14.68164 l 0.16016,-0.4043 -77.52735,179.67578 0.28125,-0.58593 c -2.33164,4.38499 -3.18123,10.49348 -0.041,14.875 3.14022,4.38152 7.30223,5.18067 10.4707,5.65234 3.16847,0.47167 6.05917,0.38139 8.34375,0.27734 1.14229,-0.052 2.12952,-0.11552 2.78321,-0.14843 0.65368,-0.0329 1.47676,0.15409 -0.0664,-0.0977 a 8.0008,8.0008 0 0 0 1.35742,0.10352 c 0,0 46.22012,-0.39403 92.82617,-0.65625 23.30303,-0.13111 46.70496,-0.22837 64.45313,-0.22852 8.87408,-7e-5 16.3388,0.0234 21.64062,0.0801 2.65092,0.0283 4.76765,0.0663 6.19727,0.10937 0.71481,0.0216 1.26702,0.0464 1.55469,0.0645 0.1079,0.007 0.11636,0.008 0.11718,0.008 a 8.0008,8.0008 0 0 0 0.88867,0.0918 c 30.26116,1.17347 52.67138,-2.70258 67.63478,-6.98438 7.4817,-2.1409 13.1016,-4.3813 16.9199,-6.13281 1.9092,-0.87575 3.3662,-1.62897 4.3867,-2.18945 0.5103,-0.28025 0.9098,-0.51113 1.211,-0.69141 0.1252,-0.0749 0.2271,-0.13806 0.3281,-0.20117 60.6213,-29.85779 78.6189,-89.40622 78.7695,-89.90821 14.9068,-40.2536 6.1141,-68.10234 -8.5273,-84.30468 -7.3417,-8.12441 -15.8032,-13.39755 -22.961,-16.75586 -7.1577,-3.35832 -12.2601,-4.78975 -16.0859,-5.21485 a 8.0008,8.0008 0 0 0 -0.8633,-0.0488 c 0,0 -54.4766,-0.12996 -110.52146,-0.32618 -28.02244,-0.0981 -56.43764,-0.21329 -78.625,-0.33593 -22.1863,-0.12264 -38.78822,-0.28371 -41.02734,-0.37696 h -0.002 c -0.5198,-0.0217 -1.03914,-0.0322 -1.55859,-0.0273 z m 0.14844,16 c 0.23117,-0.002 0.47885,6.4e-4 0.74414,0.0117 4.04815,0.16867 19.39959,0.26982 41.60742,0.39258 22.20783,0.12275 50.62811,0.2378 78.65625,0.33593 55.7076,0.19504 109.1801,0.32261 109.8516,0.32422 0.188,0.0487 5.3393,1.15092 10.8789,3.75 5.6884,2.66892 12.3584,6.8804 17.8867,12.99805 11.0565,12.2353 18.925,31.80199 5.3027,68.31836 a 8.0008,8.0008 0 0 0 -0.1679,0.5 c 0,0 -16.2515,53.92017 -71.1368,80.62109 a 8.0008,8.0008 0 0 0 -1.2754,0.78125 c 0.034,-0.0262 0.086,-0.068 0.1,-0.0781 0.1677,-0.12076 0.1989,-0.13927 0.2363,-0.16406 0.075,-0.0496 0.089,-0.0588 0.098,-0.0645 0.018,-0.0114 -0.013,0.01 -0.072,0.0449 -0.1176,0.0704 -0.3533,0.20863 -0.6953,0.39649 -0.6842,0.37572 -1.8027,0.95672 -3.3575,1.66992 -3.1095,1.4264 -7.9686,3.38099 -14.6504,5.29297 -13.3114,3.8091 -33.87783,7.44658 -62.30073,6.3789 -0.003,-3.5e-4 -0.0161,-0.004 -0.0195,-0.004 -0.34297,-0.038 -0.61779,-0.0575 -0.91601,-0.0762 -0.59644,-0.0374 -1.26203,-0.0654 -2.07422,-0.0899 -1.62437,-0.049 -3.80365,-0.0844 -6.50977,-0.11328 -5.41223,-0.0578 -12.90699,-0.0821 -21.81054,-0.082 -17.80711,1.5e-4 -41.22471,0.0973 -64.54297,0.22852 -46.63652,0.26239 -92.87305,0.65625 -92.87305,0.65625 l 1.35547,0.10351 c -2.13922,-0.34898 -2.455,-0.13312 -3.31445,-0.0898 -0.85946,0.0433 -1.75808,0.10335 -2.70508,0.14648 -0.97301,0.0443 -1.76248,-0.0411 -2.70313,-0.0605 l 76.59375,-177.51172 a 8.0008,8.0008 0 0 0 0.16016,-0.4043 c 0,0 0.27182,-4.14471 7.6543,-4.21289 z m 119.15429,17.14062 c -19.50886,-0.0628 -36.31054,0.94141 -36.31054,0.94141 a 8.0008,8.0008 0 0 0 -6.89649,4.88281 l -54.47851,129.38672 a 8.0008,8.0008 0 0 0 6.27344,11.02735 c 0,0 18.44051,2.57767 39.16992,2.16992 10.3647,-0.20388 21.35206,-1.11775 31.3164,-3.66992 9.96435,-2.55217 19.34251,-6.66033 25.15625,-14.91211 8.88288,-12.60794 19.23518,-33.54758 27.75196,-51.76954 8.51679,-18.22195 14.98439,-33.5371 14.98439,-33.5371 l -0.1172,0.26367 c 0,0 4.2445,-8.5265 4.4141,-18.69727 0.085,-5.08538 -0.9118,-11.09677 -4.9668,-16.18554 -4.055,-5.08878 -10.84493,-8.30793 -19.18168,-8.94922 -8.80352,-0.67721 -18.24779,-0.92265 -27.11524,-0.95118 z m -0.0508,16 c 8.60495,0.0277 17.71837,0.2719 25.93946,0.9043 5.28294,0.40638 6.94039,1.76941 7.89453,2.9668 0.95413,1.19738 1.52864,3.17689 1.48242,5.94922 -0.0924,5.54465 -2.91992,12.20898 -2.91992,12.20898 a 8.0008,8.0008 0 0 0 -0.11719,0.26367 c 0,0 -6.36555,15.06617 -14.74219,32.98828 -8.37663,17.92212 -18.97796,38.88929 -26.33398,49.33008 -2.30568,3.27258 -7.98811,6.56286 -16.04688,8.62696 -8.05877,2.06409 -18.0557,2.98486 -27.66211,3.17382 -10.17821,0.20021 -19.34065,-0.34856 -26.19531,-0.9375 l 48.33008,-114.78515 c 5.28843,-0.26497 15.86709,-0.73616 30.37109,-0.68946 z m 73.0078,135.08008 a 8.0008,8.0008 0 0 0 -0.25,0.21289 c 0,-10e-6 -0.01,-0.01 -0.01,-0.01 -3e-4,1.9e-4 0.1412,-0.11123 0.2558,-0.20313 z"
       id="path221"
       inkscape:connector-curvature="0" />
  </g>
</svg>
